# xmcd
#
# Track frame offsets:
#   150
#   17499
#   26033
#   33093
#   40805
#   51524
#   62666
#   74728
#   84641
#   95159
#   106384
#   116415
#   126442
#   139705
#   148108
#   156577
#   171448
#   185021
#   196359
#   207117
#   218730
#   229927
#   241488
#   248191
#   266114
#   274126
#   286455
#
# Disc length: 3967 seconds
#
# Revision: 0
# Processed by: cddbd v1.5.2PL0 Copyright (c) Steve Scherf et al.
# Submitted via: uFREEDB ActiveX Control 1.5
#
DISCID=ac0f7d1b
DTITLE=os inocentes - os inocentes
DYEAR=1900
DGENRE=Blues
TTITLE0=os inocentes1
TTITLE1=os inocentes
TTITLE2=os inocentes
TTITLE3=os inocentes2
TTITLE4=os inocentes3
TTITLE5=os inocentes
TTITLE6=os inocentes4
TTITLE7=os inocentes5
TTITLE8=os inocentes
TTITLE9=os inocentes
TTITLE10=os inocentes
TTITLE11=os inocentes
TTITLE12=os inocentes6
TTITLE13=os inocentes
TTITLE14=os inocentes7
TTITLE15=os inocentes8
TTITLE16=os inocentes9
TTITLE17=os inocentes
TTITLE18=os inocentes
TTITLE19=os inocentes
TTITLE20=os inocentes
TTITLE21=os inocentes
TTITLE22=os inocentes
TTITLE23=os inocentes
TTITLE24=os inocentes
TTITLE25=os inocentes
TTITLE26=os inocentes
EXTD=
EXTT0=
EXTT1=
EXTT2=
EXTT3=
EXTT4=
EXTT5=
EXTT6=
EXTT7=
EXTT8=
EXTT9=
EXTT10=
EXTT11=
EXTT12=
EXTT13=
EXTT14=
EXTT15=
EXTT16=
EXTT17=
EXTT18=
EXTT19=
EXTT20=
EXTT21=
EXTT22=
EXTT23=
EXTT24=
EXTT25=
EXTT26=
PLAYORDER=
